<mxfile host="app.diagrams.net" agent="Mozilla/5.0 (Windows NT 10.0; Win64; x64) AppleWebKit/537.36 (KHTML, like Gecko) Chrome/133.0.0.0 Safari/537.36" version="26.0.16">
  <diagram name="Page-1" id="Gc7-GitTT4i4blprT2dc">
    <mxGraphModel dx="840" dy="482" grid="1" gridSize="10" guides="1" tooltips="1" connect="1" arrows="1" fold="1" page="1" pageScale="1" pageWidth="1169" pageHeight="1654" math="0" shadow="0">
      <root>
        <mxCell id="0" />
        <mxCell id="1" parent="0" />
        <mxCell id="MnIJkSMBeeclWPz2_ICT-1" style="edgeStyle=orthogonalEdgeStyle;rounded=0;orthogonalLoop=1;jettySize=auto;html=1;exitX=0.5;exitY=1;exitDx=0;exitDy=0;" edge="1" parent="1" source="MnIJkSMBeeclWPz2_ICT-2" target="MnIJkSMBeeclWPz2_ICT-3">
          <mxGeometry relative="1" as="geometry" />
        </mxCell>
        <mxCell id="MnIJkSMBeeclWPz2_ICT-2" value="Start" style="rounded=1;whiteSpace=wrap;html=1;" vertex="1" parent="1">
          <mxGeometry x="1100" y="60" width="120" height="50" as="geometry" />
        </mxCell>
        <mxCell id="MnIJkSMBeeclWPz2_ICT-3" value="Login Email" style="shape=parallelogram;perimeter=parallelogramPerimeter;whiteSpace=wrap;html=1;fixedSize=1;" vertex="1" parent="1">
          <mxGeometry x="1100" y="200" width="120" height="60" as="geometry" />
        </mxCell>
        <mxCell id="MnIJkSMBeeclWPz2_ICT-4" value="Main Page" style="rhombus;whiteSpace=wrap;html=1;" vertex="1" parent="1">
          <mxGeometry x="1120" y="460" width="80" height="80" as="geometry" />
        </mxCell>
        <mxCell id="MnIJkSMBeeclWPz2_ICT-5" value="Drawing&lt;div&gt;(PDF Reader)&lt;/div&gt;" style="rounded=0;whiteSpace=wrap;html=1;" vertex="1" parent="1">
          <mxGeometry x="880" y="400" width="120" height="60" as="geometry" />
        </mxCell>
        <mxCell id="MnIJkSMBeeclWPz2_ICT-6" value="Survey" style="rounded=0;whiteSpace=wrap;html=1;" vertex="1" parent="1">
          <mxGeometry x="1410" y="360" width="120" height="60" as="geometry" />
        </mxCell>
        <mxCell id="MnIJkSMBeeclWPz2_ICT-7" value="I-Smart" style="rounded=0;whiteSpace=wrap;html=1;" vertex="1" parent="1">
          <mxGeometry x="880" y="597.5" width="120" height="60" as="geometry" />
        </mxCell>
        <mxCell id="MnIJkSMBeeclWPz2_ICT-8" value="Profile" style="rounded=0;whiteSpace=wrap;html=1;" vertex="1" parent="1">
          <mxGeometry x="1420" y="580" width="120" height="60" as="geometry" />
        </mxCell>
        <mxCell id="MnIJkSMBeeclWPz2_ICT-48" style="edgeStyle=orthogonalEdgeStyle;rounded=0;orthogonalLoop=1;jettySize=auto;html=1;entryX=0.5;entryY=0;entryDx=0;entryDy=0;" edge="1" parent="1" source="MnIJkSMBeeclWPz2_ICT-9" target="MnIJkSMBeeclWPz2_ICT-17">
          <mxGeometry relative="1" as="geometry">
            <Array as="points">
              <mxPoint x="1280" y="710" />
            </Array>
          </mxGeometry>
        </mxCell>
        <mxCell id="MnIJkSMBeeclWPz2_ICT-9" value="Notifikasi" style="rounded=0;whiteSpace=wrap;html=1;" vertex="1" parent="1">
          <mxGeometry x="1300" y="680" width="120" height="60" as="geometry" />
        </mxCell>
        <mxCell id="MnIJkSMBeeclWPz2_ICT-11" value="Add Drawing Map" style="shape=parallelogram;perimeter=parallelogramPerimeter;whiteSpace=wrap;html=1;fixedSize=1;" vertex="1" parent="1">
          <mxGeometry x="650" y="330" width="120" height="40" as="geometry" />
        </mxCell>
        <mxCell id="MnIJkSMBeeclWPz2_ICT-12" value="Edit Drawing Map" style="shape=parallelogram;perimeter=parallelogramPerimeter;whiteSpace=wrap;html=1;fixedSize=1;" vertex="1" parent="1">
          <mxGeometry x="590" y="492.5" width="120" height="40" as="geometry" />
        </mxCell>
        <mxCell id="MnIJkSMBeeclWPz2_ICT-13" value="Hapus Drawing Map" style="shape=parallelogram;perimeter=parallelogramPerimeter;whiteSpace=wrap;html=1;fixedSize=1;" vertex="1" parent="1">
          <mxGeometry x="610" y="385" width="140" height="40" as="geometry" />
        </mxCell>
        <mxCell id="MnIJkSMBeeclWPz2_ICT-14" value="View Drawing Map" style="shape=parallelogram;perimeter=parallelogramPerimeter;whiteSpace=wrap;html=1;fixedSize=1;" vertex="1" parent="1">
          <mxGeometry x="600" y="440" width="130" height="40" as="geometry" />
        </mxCell>
        <mxCell id="MnIJkSMBeeclWPz2_ICT-16" style="edgeStyle=orthogonalEdgeStyle;rounded=0;orthogonalLoop=1;jettySize=auto;html=1;entryX=0;entryY=0.5;entryDx=0;entryDy=0;exitX=0.5;exitY=1;exitDx=0;exitDy=0;" edge="1" parent="1" source="MnIJkSMBeeclWPz2_ICT-17" target="MnIJkSMBeeclWPz2_ICT-18">
          <mxGeometry relative="1" as="geometry">
            <Array as="points">
              <mxPoint x="1280" y="860.5" />
            </Array>
          </mxGeometry>
        </mxCell>
        <mxCell id="MnIJkSMBeeclWPz2_ICT-17" value="Lihat Notifikasi OTP" style="rounded=0;whiteSpace=wrap;html=1;" vertex="1" parent="1">
          <mxGeometry x="1220" y="790" width="120" height="30" as="geometry" />
        </mxCell>
        <mxCell id="MnIJkSMBeeclWPz2_ICT-18" value="Konfirmasi OTP" style="shape=parallelogram;perimeter=parallelogramPerimeter;whiteSpace=wrap;html=1;fixedSize=1;" vertex="1" parent="1">
          <mxGeometry x="1300" y="847" width="120" height="20" as="geometry" />
        </mxCell>
        <mxCell id="MnIJkSMBeeclWPz2_ICT-19" value="Add Email User" style="shape=parallelogram;perimeter=parallelogramPerimeter;whiteSpace=wrap;html=1;fixedSize=1;" vertex="1" parent="1">
          <mxGeometry x="1620" y="545" width="120" height="35" as="geometry" />
        </mxCell>
        <mxCell id="MnIJkSMBeeclWPz2_ICT-20" value="Edit Email User" style="shape=parallelogram;perimeter=parallelogramPerimeter;whiteSpace=wrap;html=1;fixedSize=1;" vertex="1" parent="1">
          <mxGeometry x="1620" y="597.5" width="120" height="35" as="geometry" />
        </mxCell>
        <mxCell id="MnIJkSMBeeclWPz2_ICT-21" value="Hapus Email User" style="shape=parallelogram;perimeter=parallelogramPerimeter;whiteSpace=wrap;html=1;fixedSize=1;" vertex="1" parent="1">
          <mxGeometry x="1620" y="657.5" width="120" height="35" as="geometry" />
        </mxCell>
        <mxCell id="MnIJkSMBeeclWPz2_ICT-22" value="View Email User" style="shape=parallelogram;perimeter=parallelogramPerimeter;whiteSpace=wrap;html=1;fixedSize=1;" vertex="1" parent="1">
          <mxGeometry x="1620" y="500" width="120" height="35" as="geometry" />
        </mxCell>
        <mxCell id="MnIJkSMBeeclWPz2_ICT-23" value="Logout" style="shape=parallelogram;perimeter=parallelogramPerimeter;whiteSpace=wrap;html=1;fixedSize=1;" vertex="1" parent="1">
          <mxGeometry x="1080" y="960" width="120" height="40" as="geometry" />
        </mxCell>
        <mxCell id="MnIJkSMBeeclWPz2_ICT-24" value="End" style="rounded=1;whiteSpace=wrap;html=1;fontSize=12;glass=0;strokeWidth=1;shadow=0;" vertex="1" parent="1">
          <mxGeometry x="1080" y="1040" width="120" height="40" as="geometry" />
        </mxCell>
        <mxCell id="MnIJkSMBeeclWPz2_ICT-25" value="" style="endArrow=classic;html=1;rounded=0;entryX=0.5;entryY=0;entryDx=0;entryDy=0;exitX=0.5;exitY=1;exitDx=0;exitDy=0;" edge="1" parent="1" source="MnIJkSMBeeclWPz2_ICT-23" target="MnIJkSMBeeclWPz2_ICT-24">
          <mxGeometry width="50" height="50" relative="1" as="geometry">
            <mxPoint x="890" y="1072.5" as="sourcePoint" />
            <mxPoint x="940" y="1022.5" as="targetPoint" />
          </mxGeometry>
        </mxCell>
        <mxCell id="MnIJkSMBeeclWPz2_ICT-26" value="Tambah WO" style="shape=parallelogram;perimeter=parallelogramPerimeter;whiteSpace=wrap;html=1;fixedSize=1;" vertex="1" parent="1">
          <mxGeometry x="1660" y="280" width="120" height="40" as="geometry" />
        </mxCell>
        <mxCell id="MnIJkSMBeeclWPz2_ICT-27" value="Edit WO" style="shape=parallelogram;perimeter=parallelogramPerimeter;whiteSpace=wrap;html=1;fixedSize=1;" vertex="1" parent="1">
          <mxGeometry x="1650" y="330" width="120" height="35" as="geometry" />
        </mxCell>
        <mxCell id="MnIJkSMBeeclWPz2_ICT-28" value="Delete WO&lt;span style=&quot;color: rgba(0, 0, 0, 0); font-family: monospace; font-size: 0px; text-align: start; text-wrap-mode: nowrap;&quot;&gt;%3CmxGraphModel%3E%3Croot%3E%3CmxCell%20id%3D%220%22%2F%3E%3CmxCell%20id%3D%221%22%20parent%3D%220%22%2F%3E%3CmxCell%20id%3D%222%22%20value%3D%22Edit%20Email%20User%22%20style%3D%22shape%3Dparallelogram%3Bperimeter%3DparallelogramPerimeter%3BwhiteSpace%3Dwrap%3Bhtml%3D1%3BfixedSize%3D1%3B%22%20vertex%3D%221%22%20parent%3D%221%22%3E%3CmxGeometry%20x%3D%221600%22%20y%3D%22647.5%22%20width%3D%22120%22%20height%3D%2235%22%20as%3D%22geometry%22%2F%3E%3C%2FmxCell%3E%3CmxCell%20id%3D%223%22%20value%3D%22Hapus%20Email%20User%22%20style%3D%22shape%3Dparallelogram%3Bperimeter%3DparallelogramPerimeter%3BwhiteSpace%3Dwrap%3Bhtml%3D1%3BfixedSize%3D1%3B%22%20vertex%3D%221%22%20parent%3D%221%22%3E%3CmxGeometry%20x%3D%221600%22%20y%3D%22707.5%22%20width%3D%22120%22%20height%3D%2235%22%20as%3D%22geometry%22%2F%3E%3C%2FmxCell%3E%3C%2Froot%3E%3C%2FmxGraphModel%3E&lt;/span&gt;" style="shape=parallelogram;perimeter=parallelogramPerimeter;whiteSpace=wrap;html=1;fixedSize=1;" vertex="1" parent="1">
          <mxGeometry x="1650" y="390" width="120" height="35" as="geometry" />
        </mxCell>
        <mxCell id="MnIJkSMBeeclWPz2_ICT-29" value="View WO&lt;span style=&quot;color: rgba(0, 0, 0, 0); font-family: monospace; font-size: 0px; text-align: start; text-wrap-mode: nowrap;&quot;&gt;%3CmxGraphModel%3E%3Croot%3E%3CmxCell%20id%3D%220%22%2F%3E%3CmxCell%20id%3D%221%22%20parent%3D%220%22%2F%3E%3CmxCell%20id%3D%222%22%20value%3D%22Edit%20Email%20User%22%20style%3D%22shape%3Dparallelogram%3Bperimeter%3DparallelogramPerimeter%3BwhiteSpace%3Dwrap%3Bhtml%3D1%3BfixedSize%3D1%3B%22%20vertex%3D%221%22%20parent%3D%221%22%3E%3CmxGeometry%20x%3D%221600%22%20y%3D%22647.5%22%20width%3D%22120%22%20height%3D%2235%22%20as%3D%22geometry%22%2F%3E%3C%2FmxCell%3E%3CmxCell%20id%3D%223%22%20value%3D%22Hapus%20Email%20User%22%20style%3D%22shape%3Dparallelogram%3Bperimeter%3DparallelogramPerimeter%3BwhiteSpace%3Dwrap%3Bhtml%3D1%3BfixedSize%3D1%3B%22%20vertex%3D%221%22%20parent%3D%221%22%3E%3CmxGeometry%20x%3D%221600%22%20y%3D%22707.5%22%20width%3D%22120%22%20height%3D%2235%22%20as%3D%22geometry%22%2F%3E%3C%2FmxCell%3E%3C%2Froot%3E%3C%2FmxGraphModel%3E&lt;/span&gt;" style="shape=parallelogram;perimeter=parallelogramPerimeter;whiteSpace=wrap;html=1;fixedSize=1;" vertex="1" parent="1">
          <mxGeometry x="1660" y="240" width="120" height="35" as="geometry" />
        </mxCell>
        <mxCell id="MnIJkSMBeeclWPz2_ICT-30" value="" style="endArrow=classic;html=1;rounded=0;exitX=0.5;exitY=1;exitDx=0;exitDy=0;entryX=0.5;entryY=0;entryDx=0;entryDy=0;" edge="1" parent="1" source="MnIJkSMBeeclWPz2_ICT-3" target="MnIJkSMBeeclWPz2_ICT-4">
          <mxGeometry width="50" height="50" relative="1" as="geometry">
            <mxPoint x="1150" y="380" as="sourcePoint" />
            <mxPoint x="1200" y="330" as="targetPoint" />
          </mxGeometry>
        </mxCell>
        <mxCell id="MnIJkSMBeeclWPz2_ICT-31" value="" style="endArrow=classic;startArrow=classic;html=1;rounded=0;exitX=1;exitY=0.5;exitDx=0;exitDy=0;entryX=0;entryY=0;entryDx=0;entryDy=0;" edge="1" parent="1" source="MnIJkSMBeeclWPz2_ICT-5" target="MnIJkSMBeeclWPz2_ICT-4">
          <mxGeometry width="50" height="50" relative="1" as="geometry">
            <mxPoint x="1060" y="500" as="sourcePoint" />
            <mxPoint x="1110" y="450" as="targetPoint" />
          </mxGeometry>
        </mxCell>
        <mxCell id="MnIJkSMBeeclWPz2_ICT-32" value="" style="endArrow=classic;startArrow=classic;html=1;rounded=0;exitX=1;exitY=0.5;exitDx=0;exitDy=0;entryX=0;entryY=0.5;entryDx=0;entryDy=0;" edge="1" parent="1" source="MnIJkSMBeeclWPz2_ICT-11" target="MnIJkSMBeeclWPz2_ICT-5">
          <mxGeometry width="50" height="50" relative="1" as="geometry">
            <mxPoint x="770" y="340" as="sourcePoint" />
            <mxPoint x="910" y="390" as="targetPoint" />
          </mxGeometry>
        </mxCell>
        <mxCell id="MnIJkSMBeeclWPz2_ICT-33" value="" style="endArrow=classic;startArrow=classic;html=1;rounded=0;exitX=1;exitY=0.5;exitDx=0;exitDy=0;entryX=0;entryY=0.5;entryDx=0;entryDy=0;" edge="1" parent="1" source="MnIJkSMBeeclWPz2_ICT-12" target="MnIJkSMBeeclWPz2_ICT-5">
          <mxGeometry width="50" height="50" relative="1" as="geometry">
            <mxPoint x="770" y="530" as="sourcePoint" />
            <mxPoint x="820" y="480" as="targetPoint" />
          </mxGeometry>
        </mxCell>
        <mxCell id="MnIJkSMBeeclWPz2_ICT-34" value="" style="endArrow=classic;startArrow=classic;html=1;rounded=0;entryX=0;entryY=0.5;entryDx=0;entryDy=0;exitX=1;exitY=0.5;exitDx=0;exitDy=0;" edge="1" parent="1" source="MnIJkSMBeeclWPz2_ICT-14" target="MnIJkSMBeeclWPz2_ICT-5">
          <mxGeometry width="50" height="50" relative="1" as="geometry">
            <mxPoint x="760" y="560" as="sourcePoint" />
            <mxPoint x="810" y="510" as="targetPoint" />
          </mxGeometry>
        </mxCell>
        <mxCell id="MnIJkSMBeeclWPz2_ICT-35" value="" style="endArrow=classic;startArrow=classic;html=1;rounded=0;exitX=1;exitY=0.5;exitDx=0;exitDy=0;" edge="1" parent="1" source="MnIJkSMBeeclWPz2_ICT-13">
          <mxGeometry width="50" height="50" relative="1" as="geometry">
            <mxPoint x="760" y="570" as="sourcePoint" />
            <mxPoint x="880" y="430" as="targetPoint" />
          </mxGeometry>
        </mxCell>
        <mxCell id="MnIJkSMBeeclWPz2_ICT-36" value="" style="endArrow=classic;startArrow=classic;html=1;rounded=0;exitX=1;exitY=0.5;exitDx=0;exitDy=0;entryX=0;entryY=0.5;entryDx=0;entryDy=0;" edge="1" parent="1" source="MnIJkSMBeeclWPz2_ICT-7" target="MnIJkSMBeeclWPz2_ICT-4">
          <mxGeometry width="50" height="50" relative="1" as="geometry">
            <mxPoint x="1070" y="610" as="sourcePoint" />
            <mxPoint x="1120" y="560" as="targetPoint" />
          </mxGeometry>
        </mxCell>
        <mxCell id="MnIJkSMBeeclWPz2_ICT-37" value="" style="endArrow=classic;startArrow=classic;html=1;rounded=0;entryX=0;entryY=0.5;entryDx=0;entryDy=0;exitX=1;exitY=0;exitDx=0;exitDy=0;" edge="1" parent="1" source="MnIJkSMBeeclWPz2_ICT-4" target="MnIJkSMBeeclWPz2_ICT-6">
          <mxGeometry width="50" height="50" relative="1" as="geometry">
            <mxPoint x="1280" y="480" as="sourcePoint" />
            <mxPoint x="1330" y="430" as="targetPoint" />
          </mxGeometry>
        </mxCell>
        <mxCell id="MnIJkSMBeeclWPz2_ICT-38" value="" style="endArrow=classic;startArrow=classic;html=1;rounded=0;entryX=0;entryY=0.5;entryDx=0;entryDy=0;exitX=1;exitY=0.5;exitDx=0;exitDy=0;" edge="1" parent="1" source="MnIJkSMBeeclWPz2_ICT-6" target="MnIJkSMBeeclWPz2_ICT-29">
          <mxGeometry width="50" height="50" relative="1" as="geometry">
            <mxPoint x="1510" y="320" as="sourcePoint" />
            <mxPoint x="1560" y="270" as="targetPoint" />
          </mxGeometry>
        </mxCell>
        <mxCell id="MnIJkSMBeeclWPz2_ICT-39" value="" style="endArrow=classic;startArrow=classic;html=1;rounded=0;exitX=1;exitY=0.5;exitDx=0;exitDy=0;entryX=0;entryY=0.5;entryDx=0;entryDy=0;" edge="1" parent="1" source="MnIJkSMBeeclWPz2_ICT-6" target="MnIJkSMBeeclWPz2_ICT-26">
          <mxGeometry width="50" height="50" relative="1" as="geometry">
            <mxPoint x="1530" y="470" as="sourcePoint" />
            <mxPoint x="1580" y="420" as="targetPoint" />
          </mxGeometry>
        </mxCell>
        <mxCell id="MnIJkSMBeeclWPz2_ICT-40" value="" style="endArrow=classic;startArrow=classic;html=1;rounded=0;entryX=0;entryY=0.5;entryDx=0;entryDy=0;exitX=1;exitY=0.5;exitDx=0;exitDy=0;" edge="1" parent="1" source="MnIJkSMBeeclWPz2_ICT-6" target="MnIJkSMBeeclWPz2_ICT-27">
          <mxGeometry width="50" height="50" relative="1" as="geometry">
            <mxPoint x="1550" y="450" as="sourcePoint" />
            <mxPoint x="1600" y="400" as="targetPoint" />
          </mxGeometry>
        </mxCell>
        <mxCell id="MnIJkSMBeeclWPz2_ICT-41" value="" style="endArrow=classic;startArrow=classic;html=1;rounded=0;entryX=0;entryY=0.5;entryDx=0;entryDy=0;exitX=1;exitY=0.5;exitDx=0;exitDy=0;" edge="1" parent="1" source="MnIJkSMBeeclWPz2_ICT-6" target="MnIJkSMBeeclWPz2_ICT-28">
          <mxGeometry width="50" height="50" relative="1" as="geometry">
            <mxPoint x="1530" y="390" as="sourcePoint" />
            <mxPoint x="1590" y="410" as="targetPoint" />
          </mxGeometry>
        </mxCell>
        <mxCell id="MnIJkSMBeeclWPz2_ICT-42" value="" style="endArrow=classic;startArrow=classic;html=1;rounded=0;exitX=1;exitY=0.5;exitDx=0;exitDy=0;entryX=0;entryY=0.5;entryDx=0;entryDy=0;" edge="1" parent="1" source="MnIJkSMBeeclWPz2_ICT-4" target="MnIJkSMBeeclWPz2_ICT-8">
          <mxGeometry width="50" height="50" relative="1" as="geometry">
            <mxPoint x="1210" y="600" as="sourcePoint" />
            <mxPoint x="1260" y="550" as="targetPoint" />
          </mxGeometry>
        </mxCell>
        <mxCell id="MnIJkSMBeeclWPz2_ICT-43" value="" style="endArrow=classic;startArrow=classic;html=1;rounded=0;exitX=1;exitY=0.5;exitDx=0;exitDy=0;entryX=0;entryY=0.25;entryDx=0;entryDy=0;" edge="1" parent="1" source="MnIJkSMBeeclWPz2_ICT-8" target="MnIJkSMBeeclWPz2_ICT-22">
          <mxGeometry width="50" height="50" relative="1" as="geometry">
            <mxPoint x="1550" y="580" as="sourcePoint" />
            <mxPoint x="1600" y="530" as="targetPoint" />
          </mxGeometry>
        </mxCell>
        <mxCell id="MnIJkSMBeeclWPz2_ICT-44" value="" style="endArrow=classic;startArrow=classic;html=1;rounded=0;entryX=0;entryY=0.5;entryDx=0;entryDy=0;exitX=1;exitY=0.5;exitDx=0;exitDy=0;" edge="1" parent="1" source="MnIJkSMBeeclWPz2_ICT-8" target="MnIJkSMBeeclWPz2_ICT-19">
          <mxGeometry width="50" height="50" relative="1" as="geometry">
            <mxPoint x="1530" y="720" as="sourcePoint" />
            <mxPoint x="1580" y="670" as="targetPoint" />
          </mxGeometry>
        </mxCell>
        <mxCell id="MnIJkSMBeeclWPz2_ICT-45" value="" style="endArrow=classic;startArrow=classic;html=1;rounded=0;entryX=0;entryY=0.5;entryDx=0;entryDy=0;exitX=1;exitY=0.5;exitDx=0;exitDy=0;" edge="1" parent="1" source="MnIJkSMBeeclWPz2_ICT-8" target="MnIJkSMBeeclWPz2_ICT-20">
          <mxGeometry width="50" height="50" relative="1" as="geometry">
            <mxPoint x="1530" y="720" as="sourcePoint" />
            <mxPoint x="1580" y="670" as="targetPoint" />
          </mxGeometry>
        </mxCell>
        <mxCell id="MnIJkSMBeeclWPz2_ICT-46" value="" style="endArrow=classic;startArrow=classic;html=1;rounded=0;entryX=0;entryY=0.5;entryDx=0;entryDy=0;exitX=1;exitY=0.5;exitDx=0;exitDy=0;" edge="1" parent="1" source="MnIJkSMBeeclWPz2_ICT-8" target="MnIJkSMBeeclWPz2_ICT-21">
          <mxGeometry width="50" height="50" relative="1" as="geometry">
            <mxPoint x="1530" y="720" as="sourcePoint" />
            <mxPoint x="1580" y="670" as="targetPoint" />
          </mxGeometry>
        </mxCell>
        <mxCell id="MnIJkSMBeeclWPz2_ICT-47" value="" style="endArrow=classic;startArrow=classic;html=1;rounded=0;exitX=0.5;exitY=0;exitDx=0;exitDy=0;entryX=1;entryY=1;entryDx=0;entryDy=0;" edge="1" parent="1" source="MnIJkSMBeeclWPz2_ICT-9" target="MnIJkSMBeeclWPz2_ICT-4">
          <mxGeometry width="50" height="50" relative="1" as="geometry">
            <mxPoint x="1230" y="700" as="sourcePoint" />
            <mxPoint x="1210" y="570" as="targetPoint" />
          </mxGeometry>
        </mxCell>
        <mxCell id="MnIJkSMBeeclWPz2_ICT-49" value="" style="endArrow=none;dashed=1;html=1;dashPattern=1 3;strokeWidth=2;rounded=0;entryX=0.5;entryY=1;entryDx=0;entryDy=0;exitX=0.5;exitY=0;exitDx=0;exitDy=0;" edge="1" parent="1" source="MnIJkSMBeeclWPz2_ICT-18" target="MnIJkSMBeeclWPz2_ICT-9">
          <mxGeometry width="50" height="50" relative="1" as="geometry">
            <mxPoint x="1380" y="810" as="sourcePoint" />
            <mxPoint x="1430" y="760" as="targetPoint" />
          </mxGeometry>
        </mxCell>
        <mxCell id="MnIJkSMBeeclWPz2_ICT-50" value="" style="endArrow=classic;html=1;rounded=0;exitX=0;exitY=1;exitDx=0;exitDy=0;" edge="1" parent="1" source="MnIJkSMBeeclWPz2_ICT-4" target="MnIJkSMBeeclWPz2_ICT-23">
          <mxGeometry width="50" height="50" relative="1" as="geometry">
            <mxPoint x="1020" y="770" as="sourcePoint" />
            <mxPoint x="1070" y="720" as="targetPoint" />
          </mxGeometry>
        </mxCell>
        <mxCell id="MnIJkSMBeeclWPz2_ICT-51" value="Download WO&lt;span style=&quot;color: rgba(0, 0, 0, 0); font-family: monospace; font-size: 0px; text-align: start; text-wrap-mode: nowrap;&quot;&gt;%3CmxGraphModel%3E%3Croot%3E%3CmxCell%20id%3D%220%22%2F%3E%3CmxCell%20id%3D%221%22%20parent%3D%220%22%2F%3E%3CmxCell%20id%3D%222%22%20value%3D%22Edit%20Email%20User%22%20style%3D%22shape%3Dparallelogram%3Bperimeter%3DparallelogramPerimeter%3BwhiteSpace%3Dwrap%3Bhtml%3D1%3BfixedSize%3D1%3B%22%20vertex%3D%221%22%20parent%3D%221%22%3E%3CmxGeometry%20x%3D%221600%22%20y%3D%22647.5%22%20width%3D%22120%22%20height%3D%2235%22%20as%3D%22geometry%22%2F%3E%3C%2FmxCell%3E%3CmxCell%20id%3D%223%22%20value%3D%22Hapus%20Email%20User%22%20style%3D%22shape%3Dparallelogram%3Bperimeter%3DparallelogramPerimeter%3BwhiteSpace%3Dwrap%3Bhtml%3D1%3BfixedSize%3D1%3B%22%20vertex%3D%221%22%20parent%3D%221%22%3E%3CmxGeometry%20x%3D%221600%22%20y%3D%22707.5%22%20width%3D%22120%22%20height%3D%2235%22%20as%3D%22geometry%22%2F%3E%3C%2FmxCell%3E%3C%2Froot%3E%3C%2FmxGraphModel%3E&lt;/span&gt;" style="shape=parallelogram;perimeter=parallelogramPerimeter;whiteSpace=wrap;html=1;fixedSize=1;" vertex="1" parent="1">
          <mxGeometry x="1660" y="190" width="120" height="35" as="geometry" />
        </mxCell>
        <mxCell id="MnIJkSMBeeclWPz2_ICT-52" value="" style="endArrow=classic;startArrow=classic;html=1;rounded=0;entryX=0;entryY=0.5;entryDx=0;entryDy=0;exitX=1;exitY=0.5;exitDx=0;exitDy=0;" edge="1" parent="1" source="MnIJkSMBeeclWPz2_ICT-6" target="MnIJkSMBeeclWPz2_ICT-51">
          <mxGeometry width="50" height="50" relative="1" as="geometry">
            <mxPoint x="1550" y="320" as="sourcePoint" />
            <mxPoint x="1600" y="270" as="targetPoint" />
          </mxGeometry>
        </mxCell>
      </root>
    </mxGraphModel>
  </diagram>
</mxfile>
